<svg width="116" height="116" viewBox="0 0 116 116" fill="none" xmlns="http://www.w3.org/2000/svg">
<path d="M55.564 58.992C55.564 64.3587 54.5367 68.4833 52.482 71.366C50.458 74.218 47.652 75.644 44.064 75.644C40.476 75.644 37.6547 74.218 35.6 71.366C33.576 68.4833 32.564 64.3587 32.564 58.992C32.564 56.324 32.8247 53.9627 33.346 51.908C33.898 49.8533 34.68 48.1207 35.692 46.71C36.704 45.2993 37.9153 44.226 39.326 43.49C40.7367 42.754 42.316 42.386 44.064 42.386C47.652 42.386 50.458 43.8273 52.482 46.71C54.5367 49.562 55.564 53.656 55.564 58.992ZM48.572 58.992C48.572 57.3973 48.4953 55.956 48.342 54.668C48.1887 53.3493 47.9433 52.2147 47.606 51.264C47.2687 50.3133 46.8087 49.5773 46.226 49.056C45.6433 48.5347 44.9227 48.274 44.064 48.274C43.2053 48.274 42.4847 48.5347 41.902 49.056C41.35 49.5773 40.89 50.3133 40.522 51.264C40.1847 52.2147 39.9393 53.3493 39.786 54.668C39.6327 55.956 39.556 57.3973 39.556 58.992C39.556 60.5867 39.6327 62.0433 39.786 63.362C39.9393 64.6807 40.1847 65.8153 40.522 66.766C40.89 67.7167 41.35 68.4527 41.902 68.974C42.4847 69.4953 43.2053 69.756 44.064 69.756C44.9227 69.756 45.6433 69.4953 46.226 68.974C46.8087 68.4527 47.2687 67.7167 47.606 66.766C47.9433 65.8153 48.1887 64.6807 48.342 63.362C48.4953 62.0433 48.572 60.5867 48.572 58.992ZM79.9605 51.494C79.9605 52.6593 79.7305 53.7787 79.2705 54.852C78.8105 55.9253 78.2125 56.968 77.4765 57.98C76.7405 58.9613 75.9125 59.912 74.9925 60.832C74.0725 61.752 73.1679 62.626 72.2785 63.454C71.8185 63.8833 71.3125 64.374 70.7605 64.926C70.2392 65.4473 69.7332 65.984 69.2425 66.536C68.7519 67.088 68.3072 67.6093 67.9085 68.1C67.5405 68.56 67.3105 68.9433 67.2185 69.25H80.9265V75H59.6745C59.6132 74.6627 59.5825 74.2333 59.5825 73.712C59.5825 73.1907 59.5825 72.8227 59.5825 72.608C59.5825 71.136 59.8125 69.7867 60.2725 68.56C60.7632 67.3333 61.3919 66.1987 62.1585 65.156C62.9252 64.0827 63.7839 63.086 64.7345 62.166C65.7159 61.246 66.6819 60.326 67.6325 59.406C68.3685 58.7007 69.0585 58.0413 69.7025 57.428C70.3465 56.784 70.9139 56.1707 71.4045 55.588C71.8952 54.9747 72.2785 54.3767 72.5545 53.794C72.8305 53.1807 72.9685 52.5673 72.9685 51.954C72.9685 50.6047 72.5852 49.654 71.8185 49.102C71.0519 48.55 70.1012 48.274 68.9665 48.274C68.1385 48.274 67.3565 48.412 66.6205 48.688C65.9152 48.9333 65.2559 49.24 64.6425 49.608C64.0599 49.9453 63.5539 50.298 63.1245 50.666C62.6952 51.0033 62.3732 51.2793 62.1585 51.494L58.7545 46.71C60.1039 45.4527 61.6679 44.4253 63.4465 43.628C65.2559 42.8 67.1879 42.386 69.2425 42.386C71.1132 42.386 72.7232 42.6007 74.0725 43.03C75.4219 43.4593 76.5259 44.0727 77.3845 44.87C78.2739 45.6367 78.9179 46.5873 79.3165 47.722C79.7459 48.826 79.9605 50.0833 79.9605 51.494Z" fill="#FF5A30"/>
<path opacity="0.06" d="M116 58C116 90.0325 90.0325 116 58 116C25.9675 116 0 90.0325 0 58C0 25.9675 25.9675 0 58 0C90.0325 0 116 25.9675 116 58Z" fill="#FF5A30"/>
<path opacity="0.12" d="M100 58C100 81.196 81.196 100 58 100C34.804 100 16 81.196 16 58C16 34.804 34.804 16 58 16C81.196 16 100 34.804 100 58Z" fill="#FF5A30"/>
</svg>
